<svg width="130" height="129" viewBox="0 0 130 129" fill="none" xmlns="http://www.w3.org/2000/svg">
<path d="M63.7829 114.093C52.564 114.093 42.1816 110.287 33.7646 103.09C33.75 103.082 33.7362 103.073 33.7234 103.063C31.3771 101.138 29.2027 99.0119 27.225 96.7095C27.2016 96.697 27.1809 96.6802 27.1639 96.6598C17.5413 85.4409 13.4371 70.0668 16.1794 55.5092C16.1766 55.4904 16.1766 55.4713 16.1794 55.4524C17.7455 47.0682 21.4421 39.2279 26.914 32.6852C26.9211 32.6698 26.9297 32.655 26.9395 32.6412C31.4938 26.9608 37.2737 22.5187 44.1229 19.4526C50.5645 16.567 57.7971 15.0503 65.0383 15.0503C79.4595 15.0503 92.8298 20.9182 101.728 31.1529L101.755 31.1771C109.71 39.9644 114.262 51.3052 114.592 63.1537C114.601 63.1778 114.605 63.2032 114.606 63.229V63.2616C114.619 63.8993 114.619 63.9149 114.619 63.922C114.903 70.34 113.818 76.745 111.436 82.7115C109.195 88.2911 105.872 93.4063 101.549 97.9081C96.6422 102.977 90.7766 107.019 84.2935 109.801C77.761 112.609 70.6704 114.093 63.7886 114.093H63.7829Z" fill="#C5CDD3"/>
<path d="M65.0312 15.2563C78.6515 15.2563 92.2703 20.5831 101.583 31.3135C109.482 40.0529 114.08 51.4578 114.364 63.239L114.377 63.2248C114.377 63.2702 114.39 63.8908 114.39 63.9136C115.58 93.0045 89.8434 113.88 63.7744 113.88C53.2769 113.88 42.7213 110.493 33.8555 102.894C31.4945 100.956 29.3086 98.8136 27.323 96.4923V96.515C17.7245 85.3317 13.6615 69.9277 16.4052 55.488H16.3967C17.9619 47.1225 21.6538 39.3005 27.1171 32.7748H27.1071C36.4373 21.1299 50.7378 15.2563 65.0369 15.2563H65.0312ZM65.0369 14.8303C57.7659 14.8303 50.5035 16.3612 44.0349 19.2582C40.7224 20.7373 37.5905 22.5913 34.7005 24.7838C31.7522 27.0256 29.0895 29.6201 26.772 32.5092C26.7571 32.528 26.7438 32.5479 26.7322 32.5689C21.2502 39.1361 17.5475 47.0017 15.9791 55.4114C15.977 55.4392 15.977 55.4672 15.9791 55.4951C14.6423 62.7474 14.9333 70.2061 16.8312 77.3322C18.7441 84.5364 22.2631 91.2663 27.0091 96.7962C27.0334 96.8246 27.0611 96.8498 27.0915 96.8715C29.0699 99.1736 31.2437 101.3 33.5885 103.228C33.6067 103.243 33.6262 103.256 33.6467 103.268C42.1021 110.49 52.52 114.306 63.7843 114.306C70.6974 114.306 77.8193 112.815 84.3759 109.995C90.8859 107.201 96.7753 103.141 101.701 98.0502C106.041 93.53 109.38 88.3934 111.624 82.7811C114.015 76.7868 115.104 70.3524 114.819 63.905C114.819 63.8709 114.819 63.763 114.809 63.337V63.2163C114.809 63.1797 114.803 63.1434 114.793 63.1084C114.442 51.2232 109.872 39.851 101.903 31.0266C101.892 31.0133 101.879 31.0009 101.866 30.9897C92.9264 20.7181 79.5035 14.8289 65.0283 14.8289L65.0369 14.8303Z" fill="#010E18"/>
<path d="M27.9479 58.0285C36.7714 58.0285 43.9242 50.8757 43.9242 42.0523C43.9242 33.2289 36.7714 26.076 27.9479 26.076C19.1245 26.076 11.9717 33.2289 11.9717 42.0523C11.9717 50.8757 19.1245 58.0285 27.9479 58.0285Z" fill="#010E18" stroke="#010E18" stroke-width="0.425815" stroke-linejoin="round"/>
<path d="M27.9479 55.0222C36.7714 55.0222 43.9242 47.8694 43.9242 39.0459C43.9242 30.2225 36.7714 23.0697 27.9479 23.0697C19.1245 23.0697 11.9717 30.2225 11.9717 39.0459C11.9717 47.8694 19.1245 55.0222 27.9479 55.0222Z" fill="#D05AD3" stroke="#010E18" stroke-width="0.425815" stroke-linejoin="round"/>
<mask id="mask0" mask-type="alpha" maskUnits="userSpaceOnUse" x="11" y="22" width="34" height="34">
<path d="M27.9479 55.0222C36.7714 55.0222 43.9242 47.8694 43.9242 39.0459C43.9242 30.2225 36.7714 23.0697 27.9479 23.0697C19.1245 23.0697 11.9717 30.2225 11.9717 39.0459C11.9717 47.8694 19.1245 55.0222 27.9479 55.0222Z" fill="#D05AD3" stroke="#010E18" stroke-width="0.425815" stroke-linejoin="round"/>
</mask>
<g mask="url(#mask0)">
<path d="M28.6494 48.4741C34.1647 48.4741 38.6356 44.0032 38.6356 38.4879C38.6356 32.9727 34.1647 28.5017 28.6494 28.5017C23.1342 28.5017 18.6632 32.9727 18.6632 38.4879C18.6632 44.0032 23.1342 48.4741 28.6494 48.4741Z" fill="#1463FF" stroke="#010E18" stroke-width="0.425815" stroke-linejoin="round"/>
<path d="M28.6493 46.6905C33.1795 46.6905 36.8519 43.0181 36.8519 38.488C36.8519 33.9578 33.1795 30.2854 28.6493 30.2854C24.1192 30.2854 20.4468 33.9578 20.4468 38.488C20.4468 43.0181 24.1192 46.6905 28.6493 46.6905Z" fill="#F1F3F4" stroke="#010E18" stroke-width="0.425815" stroke-linejoin="round"/>
<path d="M20.9072 49.9461C21.7566 49.047 21.7165 47.6298 20.8176 46.7807C19.9188 45.9316 18.5016 45.9722 17.6523 46.8713L9.25778 55.7575C8.40842 56.6566 8.44853 58.0738 9.34735 58.9229C10.2462 59.772 11.6634 59.7314 12.5127 58.8323L20.9072 49.9461Z" fill="#1463FF" stroke="#010E18" stroke-width="0.425815" stroke-linejoin="round"/>
<path d="M22.5924 46.5012L20.9953 44.9926C20.5375 44.5601 19.8158 44.5806 19.3833 45.0384C18.9508 45.4963 18.9713 46.218 19.4292 46.6505L21.0262 48.1591C21.484 48.5916 22.2057 48.5711 22.6382 48.1132C23.0707 47.6554 23.0502 46.9337 22.5924 46.5012Z" fill="#F1F3F4" stroke="#010E18" stroke-width="0.425815" stroke-linejoin="round"/>
</g>
<path d="M64.8083 43.3006C73.6317 43.3006 80.7845 36.1478 80.7845 27.3244C80.7845 18.501 73.6317 11.3481 64.8083 11.3481C55.9848 11.3481 48.832 18.501 48.832 27.3244C48.832 36.1478 55.9848 43.3006 64.8083 43.3006Z" fill="#010E18" stroke="#010E18" stroke-width="0.425815" stroke-linejoin="round"/>
<path d="M64.8083 40.2942C73.6317 40.2942 80.7845 33.1413 80.7845 24.3179C80.7845 15.4945 73.6317 8.34167 64.8083 8.34167C55.9848 8.34167 48.832 15.4945 48.832 24.3179C48.832 33.1413 55.9848 40.2942 64.8083 40.2942Z" fill="#FF4F9F" stroke="#010E18" stroke-width="0.425815" stroke-linejoin="round"/>
<path d="M69.8256 9.14691C68.6879 10.4917 67.8126 12.0379 67.2452 13.7055L67.0251 14.3516L66.2312 16.6834L63.675 15.8143L64.263 14.0917L64.689 12.8364C65.2174 11.2834 65.971 9.81635 66.9257 8.4823C67.9113 8.61073 68.8824 8.83328 69.8256 9.14691Z" fill="#1463FF" stroke="#010E18" stroke-width="0.283877" stroke-miterlimit="10"/>
<path d="M60.5309 34.2474C60.3104 34.2481 60.092 34.2054 59.888 34.1216C59.6841 34.0379 59.4986 33.9147 59.3423 33.7592C59.186 33.6037 59.0619 33.4189 58.9771 33.2154C58.8923 33.0118 58.8485 32.7936 58.8481 32.5731L58.8268 25.0976C58.8262 24.8772 58.8691 24.6588 58.9529 24.4549C59.0368 24.2511 59.1599 24.0657 59.3154 23.9095C59.4709 23.7532 59.6556 23.6291 59.8591 23.5442C60.0625 23.4593 60.2807 23.4154 60.5011 23.4148C60.946 23.4137 61.3732 23.5892 61.6888 23.9029C62.0043 24.2166 62.1824 24.6428 62.1839 25.0877L62.2038 32.5646C62.2049 33.0095 62.0294 33.4367 61.7157 33.7522C61.402 34.0678 60.9759 34.2459 60.5309 34.2474Z" fill="#E2E6E9" stroke="#010E18" stroke-width="0.283877" stroke-miterlimit="10"/>
<path d="M68.6255 34.2247C68.4051 34.2252 68.1867 34.1824 67.9828 34.0985C67.779 34.0147 67.5936 33.8915 67.4373 33.736C67.2811 33.5806 67.157 33.3958 67.0721 33.1924C66.9872 32.9889 66.9433 32.7708 66.9427 32.5503L66.9214 25.0735C66.9203 24.6283 67.096 24.2009 67.41 23.8853C67.724 23.5697 68.1505 23.3918 68.5957 23.3906C69.0409 23.3895 69.4683 23.5653 69.7839 23.8793C70.0995 24.1933 70.2774 24.6198 70.2785 25.0649L70.2984 32.5418C70.2995 32.9868 70.124 33.4139 69.8103 33.7295C69.4966 34.0451 69.0705 34.2232 68.6255 34.2247Z" fill="#E2E6E9" stroke="#010E18" stroke-width="0.283877" stroke-miterlimit="10"/>
<path d="M72.0012 28.5442L57.1227 28.5839C56.8213 28.5839 56.5324 28.4642 56.3193 28.2512C56.1063 28.0381 55.9866 27.7492 55.9866 27.4478L55.9738 22.2616C55.9708 21.1916 56.1786 20.1314 56.5854 19.1418C56.9922 18.1521 57.5899 17.2522 58.3445 16.4935C59.099 15.7349 59.9957 15.1323 60.9832 14.7202C61.9706 14.308 63.0296 14.0945 64.0997 14.0917H64.9517C66.0217 14.0887 67.0819 14.2965 68.0716 14.7033C69.0613 15.1101 69.9611 15.7078 70.7198 16.4624C71.4785 17.217 72.0811 18.1136 72.4932 19.1011C72.9053 20.0886 73.1188 21.1476 73.1216 22.2176L73.1358 27.4038C73.1364 27.5533 73.1075 27.7013 73.0507 27.8396C72.9939 27.9778 72.9105 28.1035 72.8051 28.2094C72.6997 28.3153 72.5744 28.3994 72.4365 28.4569C72.2985 28.5143 72.1506 28.544 72.0012 28.5442Z" fill="#1463FF" stroke="#010E18" stroke-width="0.425815" stroke-miterlimit="10"/>
<path d="M74.1582 28.6621L54.9669 28.7133C54.8666 28.7136 54.7672 28.6942 54.6745 28.6562C54.5817 28.6181 54.4974 28.5621 54.4263 28.4914C54.3552 28.4207 54.2987 28.3367 54.2601 28.2441C54.2216 28.1516 54.2016 28.0523 54.2014 27.9521V26.0108C54.201 25.9105 54.2205 25.8112 54.2585 25.7184C54.2966 25.6256 54.3526 25.5413 54.4233 25.4702C54.494 25.3991 54.578 25.3427 54.6705 25.3041C54.7631 25.2655 54.8623 25.2455 54.9626 25.2453L74.1554 25.1942C74.2555 25.1938 74.3546 25.2132 74.4472 25.2512C74.5398 25.2892 74.624 25.3451 74.695 25.4157C74.7659 25.4862 74.8223 25.5701 74.8608 25.6625C74.8993 25.7548 74.9192 25.8539 74.9194 25.954V27.8967C74.9198 27.997 74.9004 28.0963 74.8623 28.1891C74.8242 28.2818 74.7683 28.3662 74.6976 28.4373C74.6269 28.5084 74.5428 28.5648 74.4503 28.6034C74.3577 28.642 74.2585 28.6619 74.1582 28.6621Z" fill="#1463FF" stroke="#010E18" stroke-width="0.283877" stroke-miterlimit="10"/>
<path d="M101.86 58.2416C110.801 58.2416 118.05 50.9934 118.05 42.0523C118.05 33.1112 110.801 25.863 101.86 25.863C92.9193 25.863 85.6711 33.1112 85.6711 42.0523C85.6711 50.9934 92.9193 58.2416 101.86 58.2416Z" fill="#010E18"/>
<path d="M101.86 26.0761C105.02 26.0761 108.109 27.0131 110.736 28.7686C113.364 30.5241 115.411 33.0192 116.62 35.9385C117.83 38.8578 118.146 42.0701 117.53 45.1692C116.913 48.2683 115.392 51.115 113.157 53.3493C110.923 55.5836 108.076 57.1052 104.977 57.7216C101.878 58.3381 98.6657 58.0217 95.7465 56.8125C92.8272 55.6033 90.332 53.5556 88.5765 50.9283C86.821 48.301 85.8841 45.2122 85.8841 42.0524C85.8841 37.8152 87.5673 33.7516 90.5634 30.7555C93.5595 27.7593 97.6231 26.0761 101.86 26.0761ZM101.86 25.6501C98.0655 25.65 94.3882 26.9658 91.4548 29.3731C88.5213 31.7804 86.5134 35.1304 85.773 38.8522C85.0326 42.5741 85.6057 46.4375 87.3945 49.7842C89.1832 53.1309 92.0771 55.7538 95.583 57.206C99.0889 58.6582 102.99 58.8499 106.621 57.7484C110.253 56.6469 113.39 54.3203 115.498 51.1651C117.606 48.0099 118.555 44.2213 118.183 40.4448C117.811 36.6683 116.142 33.1376 113.458 30.4543C111.939 28.9264 110.131 27.715 108.141 26.8903C106.15 26.0657 104.015 25.6441 101.86 25.6501Z" fill="#010E18"/>
<path d="M101.86 55.2352C110.801 55.2352 118.05 47.987 118.05 39.046C118.05 30.1049 110.801 22.8567 101.86 22.8567C92.9193 22.8567 85.6711 30.1049 85.6711 39.046C85.6711 47.987 92.9193 55.2352 101.86 55.2352Z" fill="#FAC466"/>
<path d="M101.86 23.0696C105.02 23.0696 108.108 24.0064 110.735 25.7616C113.363 27.5168 115.41 30.0115 116.62 32.9304C117.829 35.8493 118.146 39.0612 117.53 42.1601C116.914 45.259 115.393 48.1057 113.16 50.3403C110.926 52.5749 108.08 54.097 104.981 54.7143C101.883 55.3315 98.6708 55.0161 95.7514 53.808C92.832 52.5999 90.3363 50.5533 88.58 47.927C86.8236 45.3006 85.8855 42.2125 85.8841 39.053C85.8841 34.8158 87.5673 30.7522 90.5634 27.7561C93.5595 24.7599 97.6231 23.0767 101.86 23.0767V23.0696ZM101.86 22.6507C98.0655 22.6506 94.3882 23.9664 91.4548 26.3737C88.5213 28.781 86.5134 32.131 85.773 35.8528C85.0326 39.5747 85.6057 43.4381 87.3945 46.7848C89.1832 50.1315 92.0771 52.7544 95.583 54.2066C99.0889 55.6589 102.99 55.8505 106.621 54.749C110.253 53.6475 113.39 51.3209 115.498 48.1657C117.606 45.0105 118.555 41.2219 118.183 37.4454C117.811 33.669 116.142 30.1383 113.458 27.4549C111.939 25.927 110.131 24.7156 108.141 23.8909C106.15 23.0663 104.015 22.6447 101.86 22.6507Z" fill="#010E18"/>
<mask id="mask1" mask-type="alpha" maskUnits="userSpaceOnUse" x="85" y="22" width="34" height="34">
<path d="M101.86 55.2352C110.801 55.2352 118.05 47.987 118.05 39.046C118.05 30.1049 110.801 22.8567 101.86 22.8567C92.9193 22.8567 85.6711 30.1049 85.6711 39.046C85.6711 47.987 92.9193 55.2352 101.86 55.2352Z" fill="#FAC466"/>
</mask>
<g mask="url(#mask1)">
<path d="M89.8676 52.6441C89.8432 52.6437 89.8193 52.6374 89.798 52.6257L89.0169 52.1812C88.9925 52.1671 88.9729 52.146 88.9605 52.1207C88.9481 52.0955 88.9435 52.0671 88.9473 52.0392L93.1764 27.1645C93.1803 27.1423 93.1894 27.1213 93.2029 27.1032C93.2165 27.0852 93.2342 27.0707 93.2545 27.0608C93.2736 27.0516 93.2944 27.0468 93.3156 27.0466C93.3405 27.0465 93.365 27.0528 93.3866 27.0651L94.1662 27.5096C94.1882 27.5219 94.2064 27.5399 94.2192 27.5616C94.2319 27.5833 94.2386 27.608 94.2387 27.6331V52.5021C94.2387 52.5398 94.2237 52.5759 94.1971 52.6025C94.1704 52.6292 94.1343 52.6441 94.0967 52.6441H89.8676Z" fill="#010E18"/>
<path d="M93.3155 27.1887L94.0966 27.6332V52.5022H89.8675L89.0864 52.0577L93.3155 27.1887ZM93.3155 26.9047C93.2738 26.9047 93.2326 26.9139 93.1948 26.9316C93.1533 26.9512 93.1171 26.9806 93.0894 27.0172C93.0617 27.0538 93.0433 27.0965 93.0358 27.1418L88.8067 52.0094C88.7969 52.0673 88.8053 52.1267 88.8308 52.1796C88.8562 52.2325 88.8974 52.2762 88.9487 52.3048L89.7298 52.7478C89.7727 52.7733 89.8218 52.7865 89.8718 52.7862H94.1009C94.1762 52.7862 94.2484 52.7563 94.3017 52.703C94.355 52.6497 94.3849 52.5775 94.3849 52.5022V27.6332C94.3851 27.5831 94.3721 27.5339 94.3471 27.4905C94.3222 27.4471 94.2862 27.4111 94.2429 27.3861L93.4618 26.9416C93.4184 26.9174 93.3695 26.9047 93.3198 26.9047H93.3155Z" fill="#010E18"/>
<path d="M95.2214 52.6441C95.197 52.6437 95.1731 52.6374 95.1518 52.6256L94.3707 52.1811C94.3445 52.1661 94.3238 52.1432 94.3116 52.1156C94.2993 52.088 94.2961 52.0573 94.3026 52.0278L98.5316 32.3223C98.5386 32.29 98.5565 32.2611 98.5824 32.2407C98.6084 32.2202 98.6406 32.2094 98.6736 32.2101C98.6985 32.2099 98.723 32.2163 98.7446 32.2286L99.5257 32.6731C99.5472 32.6855 99.565 32.7033 99.5775 32.7247C99.5899 32.7461 99.5966 32.7704 99.5967 32.7952V52.5021C99.5967 52.5397 99.5817 52.5759 99.5551 52.6025C99.5285 52.6291 99.4924 52.6441 99.4547 52.6441H95.2214Z" fill="#010E18"/>
<path d="M98.6694 32.3593L99.4504 32.8023V52.5021H95.2213L94.4403 52.0576L98.6694 32.3593ZM98.6694 32.0753C98.6297 32.0748 98.5904 32.083 98.5543 32.0994C98.5135 32.1177 98.4775 32.1453 98.4494 32.1801C98.4212 32.2149 98.4017 32.2559 98.3924 32.2996L94.1633 51.998C94.151 52.0576 94.1582 52.1196 94.1838 52.1748C94.2093 52.23 94.2519 52.2756 94.3054 52.3047L95.085 52.7478C95.1281 52.7728 95.1771 52.7861 95.227 52.7861H99.4561C99.5314 52.7861 99.6037 52.7562 99.6569 52.703C99.7102 52.6497 99.7401 52.5774 99.7401 52.5021V32.7953C99.7401 32.7454 99.7269 32.6965 99.702 32.6534C99.6771 32.6103 99.6412 32.5745 99.5981 32.5496L98.817 32.1051C98.7739 32.0801 98.7249 32.0673 98.675 32.0682L98.6694 32.0753Z" fill="#010E18"/>
<path d="M100.575 52.6441C100.551 52.6437 100.527 52.6374 100.506 52.6256L99.7245 52.1811C99.6948 52.1641 99.6723 52.1369 99.661 52.1045C99.6498 52.0722 99.6507 52.0368 99.6634 52.0051L103.893 41.4096C103.9 41.391 103.911 41.3741 103.926 41.3601C103.94 41.3462 103.957 41.3355 103.976 41.3287C103.991 41.3237 104.007 41.3213 104.023 41.3216C104.048 41.3214 104.073 41.3277 104.094 41.34L104.875 41.7845C104.897 41.7969 104.915 41.8147 104.927 41.8361C104.939 41.8575 104.946 41.8819 104.946 41.9066V52.5021C104.946 52.5398 104.931 52.5759 104.905 52.6025C104.878 52.6291 104.842 52.6441 104.804 52.6441H100.575Z" fill="#010E18"/>
<path d="M104.026 41.4635L104.807 41.9066V52.502H100.575L99.7956 52.0575L104.026 41.4635ZM104.026 41.1795C103.994 41.1792 103.962 41.1844 103.932 41.1951C103.894 41.2086 103.86 41.2299 103.83 41.2579C103.801 41.2858 103.778 41.3196 103.763 41.357L99.5314 51.9567C99.506 52.0204 99.5045 52.0912 99.5272 52.156C99.55 52.2207 99.5953 52.275 99.655 52.3089L100.436 52.752C100.479 52.7777 100.528 52.7909 100.578 52.7903H104.807C104.882 52.7903 104.955 52.7604 105.008 52.7071C105.061 52.6539 105.091 52.5816 105.091 52.5063V41.9066C105.091 41.8568 105.078 41.8079 105.053 41.7648C105.028 41.7216 104.992 41.6858 104.949 41.6609L104.168 41.2164C104.125 41.1912 104.076 41.1785 104.026 41.1795Z" fill="#010E18"/>
<path d="M105.92 52.6442C105.895 52.6439 105.871 52.6371 105.849 52.6243L105.078 52.1798C105.052 52.1649 105.032 52.1421 105.02 52.1149C105.007 52.0876 105.004 52.0571 105.01 52.0278L107.839 38.6078C107.844 38.5831 107.856 38.5601 107.873 38.5414C107.89 38.5227 107.911 38.5088 107.936 38.5013L109.334 38.0568C109.349 38.0546 109.364 38.0546 109.378 38.0568C109.403 38.0569 109.427 38.0632 109.448 38.0753L110.229 38.5198C110.251 38.5323 110.269 38.5503 110.281 38.572C110.294 38.5937 110.3 38.6183 110.3 38.6433V52.5078C110.3 52.5455 110.285 52.5816 110.258 52.6083C110.232 52.6349 110.196 52.6498 110.158 52.6498L105.92 52.6442Z" fill="#010E18"/>
<path d="M109.379 38.193L110.158 38.6361V52.5021H105.921L105.149 52.0576L107.978 38.6361L109.379 38.193ZM109.379 37.909C109.349 37.909 109.32 37.9133 109.292 37.9218L107.893 38.3663C107.845 38.3813 107.802 38.4088 107.768 38.4459C107.734 38.4831 107.71 38.5287 107.7 38.5779L104.878 51.9993C104.867 52.0585 104.874 52.1199 104.9 52.1745C104.925 52.2291 104.967 52.2742 105.02 52.3032L105.791 52.7477C105.835 52.7725 105.883 52.7857 105.933 52.7861H110.171C110.246 52.7861 110.318 52.7562 110.372 52.7029C110.425 52.6496 110.455 52.5774 110.455 52.5021V38.6361C110.455 38.5863 110.442 38.5374 110.417 38.4943C110.392 38.4511 110.356 38.4153 110.313 38.3904L109.532 37.9459C109.489 37.9207 109.44 37.9079 109.39 37.909H109.379Z" fill="#010E18"/>
<path d="M111.284 52.6441C111.259 52.6439 111.235 52.6376 111.213 52.6257L110.432 52.1812C110.408 52.1671 110.388 52.146 110.376 52.1208C110.363 52.0955 110.359 52.0671 110.363 52.0392L111.144 46.1415C111.148 46.1105 111.162 46.0818 111.184 46.0597C111.206 46.0376 111.235 46.0234 111.266 46.0193L114.714 45.5748H114.732C114.757 45.5749 114.781 45.5813 114.802 45.5933L115.583 46.0378C115.605 46.0501 115.623 46.0681 115.636 46.0898C115.649 46.1115 115.655 46.1362 115.655 46.1613V52.5036C115.655 52.5412 115.64 52.5773 115.614 52.604C115.587 52.6306 115.551 52.6456 115.513 52.6456L111.284 52.6441Z" fill="#010E18"/>
<path d="M114.732 45.7154L115.513 46.1599V52.5021H111.284L110.503 52.0576L111.284 46.1599L114.732 45.7154ZM114.732 45.4314H114.695L111.247 45.8745C111.185 45.8825 111.127 45.9109 111.082 45.9554C111.038 45.9998 111.01 46.0578 111.002 46.1202L110.221 52.0165C110.213 52.0726 110.223 52.1296 110.248 52.1802C110.273 52.2308 110.313 52.2727 110.363 52.3005L111.144 52.7436C111.186 52.7692 111.236 52.7824 111.286 52.7819H115.515C115.59 52.7819 115.662 52.752 115.716 52.6987C115.769 52.6454 115.799 52.5732 115.799 52.4979V46.1599C115.799 46.1099 115.786 46.0607 115.761 46.0173C115.736 45.9739 115.7 45.9378 115.657 45.9128L114.876 45.4683C114.832 45.4438 114.783 45.4311 114.734 45.4314H114.732Z" fill="#010E18"/>
<path d="M93.3156 27.0466H89.0865C89.008 27.0466 88.9445 27.1102 88.9445 27.1886V52.0576C88.9445 52.136 89.008 52.1996 89.0865 52.1996H93.3156C93.394 52.1996 93.4576 52.136 93.4576 52.0576V27.1886C93.4576 27.1102 93.394 27.0466 93.3156 27.0466Z" fill="#006CFF"/>
<path d="M93.3156 27.1887V52.0577H89.0865V27.1887H93.3156ZM93.3156 26.9047H89.0865C89.0112 26.9047 88.9389 26.9346 88.8857 26.9879C88.8324 27.0411 88.8025 27.1134 88.8025 27.1887V52.0577C88.8025 52.133 88.8324 52.2052 88.8857 52.2585C88.9389 52.3118 89.0112 52.3417 89.0865 52.3417H93.3156C93.3909 52.3417 93.4632 52.3118 93.5164 52.2585C93.5697 52.2052 93.5996 52.133 93.5996 52.0577V27.1887C93.5996 27.1134 93.5697 27.0411 93.5164 26.9879C93.4632 26.9346 93.3909 26.9047 93.3156 26.9047Z" fill="#010E18"/>
<path d="M98.6694 32.2102H94.4404C94.3619 32.2102 94.2983 32.2738 94.2983 32.3522V52.0577C94.2983 52.1361 94.3619 52.1997 94.4404 52.1997H98.6694C98.7479 52.1997 98.8115 52.1361 98.8115 52.0577V32.3522C98.8115 32.2738 98.7479 32.2102 98.6694 32.2102Z" fill="#D05AD3"/>
<path d="M98.6694 32.3592V52.0576H94.4403V32.3592H98.6694ZM98.6694 32.0752H94.4403C94.3649 32.0752 94.2927 32.1051 94.2394 32.1584C94.1862 32.2116 94.1562 32.2839 94.1562 32.3592V52.0576C94.1562 52.1329 94.1862 52.2051 94.2394 52.2584C94.2927 52.3117 94.3649 52.3416 94.4403 52.3416H98.6694C98.7447 52.3416 98.8169 52.3117 98.8702 52.2584C98.9235 52.2051 98.9534 52.1329 98.9534 52.0576V32.3592C98.9534 32.2839 98.9235 32.2116 98.8702 32.1584C98.8169 32.1051 98.7447 32.0752 98.6694 32.0752Z" fill="#010E18"/>
<path d="M104.023 41.3215H99.7941C99.7157 41.3215 99.6521 41.3851 99.6521 41.4635V52.0576C99.6521 52.136 99.7157 52.1996 99.7941 52.1996H104.023C104.102 52.1996 104.165 52.136 104.165 52.0576V41.4635C104.165 41.3851 104.102 41.3215 104.023 41.3215Z" fill="#FF4F9F"/>
<path d="M104.026 41.4636V52.0576H99.7955V41.4636H104.026ZM104.026 41.1796H99.7955C99.7202 41.1796 99.6479 41.2095 99.5947 41.2628C99.5414 41.316 99.5115 41.3883 99.5115 41.4636V52.0576C99.5115 52.1329 99.5414 52.2052 99.5947 52.2584C99.6479 52.3117 99.7202 52.3416 99.7955 52.3416H104.026C104.101 52.3416 104.174 52.3117 104.227 52.2584C104.28 52.2052 104.31 52.1329 104.31 52.0576V41.4636C104.31 41.3883 104.28 41.316 104.227 41.2628C104.174 41.2095 104.101 41.1796 104.026 41.1796Z" fill="#010E18"/>
<path d="M109.378 38.051H105.149C105.071 38.051 105.007 38.1146 105.007 38.193V52.0576C105.007 52.136 105.071 52.1996 105.149 52.1996H109.378C109.457 52.1996 109.52 52.136 109.52 52.0576V38.193C109.52 38.1146 109.457 38.051 109.378 38.051Z" fill="#F58D72"/>
<path d="M109.378 38.1931V52.0576H105.149V38.1931H109.378ZM109.378 37.9091H105.149C105.074 37.9091 105.002 37.939 104.949 37.9922C104.895 38.0455 104.865 38.1178 104.865 38.1931V52.0576C104.865 52.1329 104.895 52.2052 104.949 52.2585C105.002 52.3117 105.074 52.3416 105.149 52.3416H109.378C109.454 52.3416 109.526 52.3117 109.579 52.2585C109.633 52.2052 109.662 52.1329 109.662 52.0576V38.1931C109.662 38.1178 109.633 38.0455 109.579 37.9922C109.526 37.939 109.454 37.9091 109.378 37.9091Z" fill="#010E18"/>
<path d="M114.732 45.5734H110.503C110.425 45.5734 110.361 45.6369 110.361 45.7154V52.0576C110.361 52.136 110.425 52.1996 110.503 52.1996H114.732C114.811 52.1996 114.874 52.136 114.874 52.0576V45.7154C114.874 45.6369 114.811 45.5734 114.732 45.5734Z" fill="#FAF684"/>
<path d="M114.732 45.7154V52.0576H110.503V45.7154H114.732ZM114.732 45.4314H110.503C110.428 45.4314 110.356 45.4613 110.302 45.5146C110.249 45.5678 110.219 45.6401 110.219 45.7154V52.0576C110.219 52.133 110.249 52.2052 110.302 52.2585C110.356 52.3117 110.428 52.3417 110.503 52.3417H114.732C114.808 52.3417 114.88 52.3117 114.933 52.2585C114.986 52.2052 115.016 52.133 115.016 52.0576V45.7154C115.016 45.6401 114.986 45.5678 114.933 45.5146C114.88 45.4613 114.808 45.4314 114.732 45.4314Z" fill="#010E18"/>
</g>
<path d="M126.123 93.5511L124.267 99.3565C124.808 97.6666 124.02 95.5634 121.823 93.5667L123.679 87.7627C125.876 89.7594 126.661 91.8611 126.123 93.5511Z" fill="#01070C"/>
<path d="M126.123 93.5511L124.267 99.3566C124.256 99.3949 124.243 99.4332 124.229 99.4702L126.085 93.6662C126.099 93.6274 126.112 93.589 126.123 93.5511Z" fill="#8A8A8A"/>
<path d="M126.085 93.6661L124.228 99.4701C124.129 99.7474 123.994 100.011 123.828 100.254L125.684 94.4486C125.85 94.2057 125.985 93.9428 126.085 93.6661Z" fill="#8F8F8F"/>
<path d="M125.684 94.4486L123.828 100.26C123.666 100.496 123.479 100.715 123.27 100.912L125.126 95.1061C125.335 94.9096 125.522 94.6911 125.684 94.4543" fill="#949494"/>
<path d="M125.126 95.1005L123.27 100.906C123.044 101.118 122.799 101.308 122.537 101.474L124.393 95.6699C124.655 95.5039 124.9 95.3137 125.126 95.1019" fill="#999999"/>
<path d="M125.126 95.1005L123.27 100.906C123.044 101.118 122.799 101.308 122.537 101.474L124.393 95.6699C124.655 95.5039 124.9 95.3137 125.126 95.1019" fill="#999999"/>
<path d="M124.393 95.6714L122.537 101.475C122.221 101.675 121.889 101.846 121.543 101.988L123.399 96.1826C123.742 96.0407 124.072 95.8697 124.386 95.6714" fill="#9E9E9E"/>
<path d="M123.406 96.1826L121.55 101.988C121.198 102.134 120.836 102.256 120.467 102.354L122.323 96.549C122.692 96.4516 123.054 96.3292 123.406 96.1826Z" fill="#A3A3A3"/>
<path d="M126.498 93.6733L124.642 99.4787C124.629 99.5185 124.616 99.5569 124.602 99.5966L126.464 93.7912C126.478 93.7529 126.491 93.7131 126.503 93.6733" fill="#01080D"/>
<path d="M126.464 93.7913L124.608 99.5967C124.504 99.884 124.364 100.157 124.192 100.409L126.038 94.6036C126.211 94.3517 126.35 94.0787 126.454 93.7913" fill="#01080D"/>
<path d="M126.038 94.6035L124.192 100.409C124.023 100.654 123.83 100.881 123.614 101.085L125.47 95.2795C125.687 95.0763 125.881 94.8496 126.048 94.6035" fill="#01080E"/>
<path d="M125.47 95.2795L123.614 101.085C123.38 101.305 123.126 101.502 122.855 101.674L124.711 95.8689C124.982 95.6969 125.236 95.4996 125.47 95.2795Z" fill="#01080E"/>
<path d="M124.706 95.8688L122.85 101.68C122.526 101.885 122.185 102.062 121.831 102.208L123.687 96.4027C124.042 96.2566 124.382 96.0799 124.706 95.8745" fill="#01090F"/>
<path d="M123.687 96.3971L121.831 102.203C121.468 102.353 121.095 102.479 120.715 102.58L122.571 96.7748C122.951 96.6739 123.324 96.5477 123.687 96.3971Z" fill="#01090F"/>
<path d="M9.5348 71.6758L7.67871 77.4798C7.30944 77.5781 6.94701 77.7005 6.59375 77.8462L8.45267 72.0422C8.8057 71.8958 9.16818 71.7734 9.53764 71.6758" fill="#01090F"/>
<path d="M8.45265 72.0421L6.59372 77.8461C6.25246 77.9884 5.92414 78.1599 5.61243 78.3588L7.45857 72.5534C7.77441 72.3543 8.10703 72.1833 8.45265 72.0421Z" fill="#01090F"/>
<path d="M7.45864 72.5533L5.61249 78.3588C5.35054 78.5247 5.10473 78.7149 4.8783 78.9268L6.73438 73.1228C6.96086 72.911 7.20666 72.7208 7.46858 72.5548" fill="#01080E"/>
<path d="M6.73011 73.1243L4.87402 78.9283C4.66534 79.1251 4.47824 79.3436 4.31592 79.5801L6.172 73.7761C6.33398 73.5393 6.5211 73.3208 6.73011 73.1243Z" fill="#01080E"/>
<path d="M6.17196 73.7762L4.31588 79.5801C4.14987 79.8235 4.01531 80.0869 3.91541 80.3641L5.77149 74.5558C5.87142 74.2791 6.00598 74.0162 6.17196 73.7733" fill="#01080D"/>
<path d="M5.7715 74.5558L3.91542 80.364C3.90264 80.4024 3.88844 80.4393 3.87708 80.4776L5.73316 74.6737L5.7715 74.5586" fill="#01080D"/>
<path d="M8.17719 80.462L6.32252 86.266C4.12419 84.2693 3.34029 82.1675 3.87709 80.4776L5.73318 74.6736C5.19212 76.3635 5.98028 78.4653 8.17719 80.462Z" fill="#858585"/>
<path d="M8.17719 80.462L6.32252 86.266C4.12419 84.2693 3.34029 82.1675 3.87709 80.4776L5.73318 74.6736C5.19212 76.3635 5.98028 78.4653 8.17719 80.462Z" fill="#858585"/>
<path d="M8.17719 80.462L6.32252 86.266C4.12419 84.2693 3.34029 82.1675 3.87709 80.4776L5.73318 74.6736C5.19212 76.3635 5.98028 78.4653 8.17719 80.462Z" fill="#858585"/>
<path d="M7.88457 80.54L6.02565 86.3426C3.75347 84.2792 2.94259 82.1036 3.50211 80.354L5.3582 74.5557C4.79867 76.301 5.6124 78.478 7.88457 80.54Z" fill="#01070C"/>
<path d="M122.323 96.549L120.467 102.354L54.494 120.032L56.3515 114.226L122.323 96.549Z" fill="#B4B4B4"/>
<path d="M122.571 96.7748L120.715 102.58L54.7426 120.256L56.6001 114.452L122.571 96.7748Z" fill="#010A11"/>
<path d="M40.6792 110.002L38.8231 115.807L6.32104 86.2659L8.17713 80.4619L40.6792 110.002Z" fill="#919191"/>
<path d="M40.3838 110.081L38.5277 115.887L6.02563 86.3455L7.88172 80.54L40.3838 110.081Z" fill="#01080E"/>
<path d="M56.3501 114.226L54.494 120.03C54.352 120.069 54.21 120.103 54.068 120.136L55.9241 114.33C56.0661 114.299 56.2081 114.263 56.3501 114.226Z" fill="#A3A3A3"/>
<path d="M55.924 114.33L54.0679 120.141C52.1749 120.567 49.9496 120.505 47.7229 120.06L49.579 114.255C51.81 114.701 54.031 114.756 55.924 114.336" fill="#A8A8A8"/>
<path d="M49.579 114.249L47.723 120.055C47.0427 119.913 46.3597 119.746 45.6865 119.541L47.5426 113.735C48.2157 113.941 48.8988 114.113 49.579 114.249Z" fill="#A3A3A3"/>
<path d="M47.5426 113.735L45.6865 119.54C45.1568 119.377 44.6328 119.195 44.1244 118.992L45.9748 113.183C46.4889 113.386 47.0129 113.569 47.5369 113.731" fill="#9E9E9E"/>
<path d="M45.9748 113.183L44.1187 118.988C43.652 118.803 43.1942 118.604 42.7455 118.389L44.6016 112.583C45.0484 112.799 45.5062 112.999 45.9748 113.183Z" fill="#999999"/>
<path d="M44.6016 112.588L42.7455 118.393C42.3095 118.183 41.8835 117.959 41.4674 117.72L43.3235 111.915C43.7353 112.153 44.1614 112.378 44.6016 112.588Z" fill="#949494"/>
<path d="M43.3278 111.915L41.4717 117.727C41.0457 117.476 40.6196 117.21 40.2249 116.93L42.0809 111.126C42.4786 111.41 42.8961 111.672 43.3278 111.922" fill="#8F8F8F"/>
<path d="M42.0816 111.12L40.2256 116.924C39.7644 116.602 39.3229 116.253 38.9034 115.879L40.7595 110.075C41.1797 110.448 41.6211 110.797 42.0816 111.12Z" fill="#8A8A8A"/>
<path d="M40.7587 110.074L38.9027 115.881L38.8231 115.81L40.6792 110.005L40.7587 110.077" fill="#858585"/>
<path d="M75.2575 53.7724C80.1143 52.4702 87.3895 54.4314 91.4723 58.1421L123.974 87.6804C128.057 91.3912 127.428 95.4711 122.571 96.7691L56.5944 114.452C51.7362 115.753 44.461 113.792 40.3782 110.081L7.88461 80.5401C3.80179 76.8293 4.43232 72.7508 9.28909 71.4514L75.2575 53.7724ZM123.679 87.7628L91.1769 58.2245C87.2247 54.6316 80.208 52.7414 75.506 54.0011L9.53477 71.6758C4.83279 72.9354 4.22498 76.8691 8.17715 80.462L40.6792 110C44.6314 113.593 51.6496 115.485 56.3516 114.225L122.323 96.549C127.032 95.2894 127.631 91.3542 123.679 87.7628Z" fill="#010D16"/>
<path d="M75.506 53.9982C80.2079 52.7385 87.2247 54.6287 91.1769 58.2216L123.679 87.7627C127.631 91.3556 127.025 95.2893 122.323 96.5489L56.3501 114.226C51.6495 115.486 44.6313 113.595 40.6792 110.002L8.1771 80.4633C4.22494 76.8705 4.83274 72.9368 9.53473 71.6771L75.506 53.9982Z" fill="#E8E8E8"/>
<path d="M19.6091 75.9233L7.19592 79.2492C7.55621 79.6959 7.95129 80.1133 8.37745 80.4975L40.729 109.894C44.6627 113.47 51.6525 115.35 56.3403 114.093L60.4131 113.002L19.6091 75.9233Z" fill="#006CFF"/>
<path d="M8.37744 80.4976L40.729 109.894C44.6627 113.47 51.6525 115.35 56.3402 114.093L60.4131 113.002L56.3402 114.093C51.6539 115.35 44.6627 113.47 40.729 109.894L8.37744 80.4976Z" fill="#010E18"/>
<path d="M64.4122 108.751C64.3749 108.757 64.3366 108.756 64.3 108.746C64.2634 108.736 64.2295 108.718 64.2006 108.694L60.1305 105.002C60.0922 104.966 60.0865 104.926 60.1163 104.901L62.7606 102.674C62.7712 102.666 62.7833 102.66 62.7961 102.657C62.8121 102.655 62.8283 102.655 62.8444 102.657L68.0491 102.769C68.1084 102.771 68.1654 102.792 68.211 102.83L72.281 106.522C72.3335 106.571 72.3264 106.625 72.264 106.642L64.4122 108.745V108.751ZM77.1931 105.32C77.1558 105.326 77.1174 105.324 77.0809 105.314C77.0443 105.304 77.0104 105.286 76.9816 105.261L72.9115 101.569C72.8718 101.532 72.8661 101.494 72.8959 101.468L75.5401 99.2529C75.5508 99.2451 75.5628 99.2393 75.5756 99.2359C75.5917 99.2336 75.6079 99.2336 75.6239 99.2359L80.8286 99.3481C80.8883 99.3499 80.9457 99.3714 80.9919 99.4092L85.062 103.101C85.1145 103.15 85.106 103.204 85.0435 103.221L77.1931 105.324V105.32ZM89.9741 101.899C89.9368 101.905 89.8984 101.903 89.8619 101.893C89.8253 101.883 89.7914 101.865 89.7626 101.84L85.7067 98.1438C85.667 98.1069 85.6627 98.0672 85.6911 98.043L88.3368 95.8276C88.3465 95.8192 88.3582 95.8133 88.3708 95.8106C88.3869 95.8083 88.4031 95.8083 88.4191 95.8106L93.6253 95.9228C93.6845 95.9248 93.7413 95.9463 93.7871 95.9839L97.8572 99.6761C97.9097 99.7244 97.9026 99.7784 97.8401 99.7954L89.9812 101.9L89.9741 101.899ZM102.762 98.4747C102.725 98.4811 102.687 98.4793 102.65 98.4692C102.613 98.4591 102.579 98.4411 102.551 98.4165L98.4877 94.7214C98.4479 94.6859 98.4437 94.6461 98.4721 94.6205L101.118 92.4066C101.128 92.3976 101.14 92.3917 101.153 92.3896C101.169 92.3872 101.186 92.3872 101.202 92.3896L106.406 92.5017C106.465 92.5036 106.522 92.525 106.568 92.5628L110.638 96.2551C110.691 96.3034 110.684 96.3573 110.621 96.3744L102.769 98.4776L102.762 98.4747ZM115.55 95.0523C115.513 95.0588 115.475 95.0569 115.438 95.0469C115.401 95.0368 115.368 95.0188 115.339 94.994L111.269 91.3018C111.229 91.2663 111.223 91.2265 111.252 91.2009L113.897 88.987C113.908 88.978 113.92 88.9717 113.933 88.9685C113.949 88.9669 113.965 88.9669 113.981 88.9685L119.186 89.0807C119.246 89.0819 119.303 89.1034 119.349 89.1418L123.419 92.8341C123.472 92.8823 123.463 92.9363 123.399 92.9533L115.55 95.0565V95.0523ZM56.3644 101.447C56.3273 101.454 56.2892 101.452 56.2528 101.443C56.2165 101.433 56.1828 101.415 56.1542 101.39L52.0842 97.6979C52.0444 97.661 52.0373 97.6198 52.0671 97.5957L54.7128 95.3803C54.7234 95.3724 54.7355 95.3666 54.7483 95.3633C54.7639 95.3617 54.7796 95.3617 54.7952 95.3633L59.9999 95.4755C60.0598 95.4775 60.1173 95.4995 60.1632 95.5379L64.2332 99.2302C64.2872 99.2785 64.2787 99.3311 64.2148 99.3481L56.3644 101.451V101.447ZM69.1454 98.026C69.1083 98.0329 69.0702 98.0313 69.0338 98.0215C68.9974 98.0117 68.9637 97.9938 68.9352 97.9692L64.8652 94.2769C64.8254 94.2414 64.8169 94.2002 64.8467 94.1761L67.4924 91.9607C67.503 91.9528 67.5151 91.947 67.5279 91.9436C67.5435 91.9421 67.5592 91.9421 67.5747 91.9436L72.7837 92.0232C72.8442 92.0245 72.9023 92.0466 72.9484 92.0857L77.0185 95.7779C77.071 95.8262 77.0625 95.8788 76.9986 95.8958L69.1496 97.999L69.1454 98.026ZM81.9306 94.5737C81.8936 94.5806 81.8555 94.5791 81.8191 94.5692C81.7827 94.5594 81.749 94.5415 81.7205 94.5169L77.6504 90.8246C77.6107 90.7891 77.6036 90.7479 77.632 90.7238L80.2791 88.5084C80.2892 88.5005 80.3007 88.4947 80.3131 88.4914C80.3287 88.4898 80.3444 88.4898 80.36 88.4914L85.5661 88.6021C85.6261 88.605 85.6835 88.6274 85.7294 88.666L89.7995 92.3583C89.852 92.4066 89.8449 92.4606 89.781 92.4776L81.9335 94.5794L81.9306 94.5737ZM94.7145 91.1541C94.6772 91.1609 94.6389 91.1593 94.6023 91.1495C94.5657 91.1397 94.5317 91.1218 94.5029 91.0973L90.4343 87.405C90.3945 87.3695 90.3874 87.3283 90.4172 87.3027L93.0629 85.0888C93.0732 85.0803 93.0854 85.0745 93.0984 85.0717C93.1139 85.0695 93.1297 85.0695 93.1453 85.0717L98.35 85.1825C98.4101 85.1844 98.4678 85.2069 98.5133 85.2464L102.583 88.9387C102.636 88.987 102.629 89.0409 102.565 89.0566L94.7145 91.1612V91.1541ZM107.495 87.7344C107.458 87.7415 107.42 87.7402 107.383 87.7307C107.347 87.7211 107.313 87.7034 107.284 87.679L103.214 83.9868C103.175 83.9498 103.167 83.9101 103.197 83.8845L105.848 81.6564C105.859 81.6476 105.872 81.6418 105.885 81.6393C105.901 81.6371 105.916 81.6371 105.932 81.6393L111.137 81.7501C111.197 81.7521 111.255 81.7741 111.301 81.8126L115.371 85.5049C115.424 85.5531 115.415 85.6057 115.352 85.6227L107.503 87.7259L107.495 87.7344ZM100.932 76.9004C100.835 76.9189 100.736 76.9157 100.641 76.8912C100.546 76.8666 100.458 76.8213 100.382 76.7584L97.7592 74.374C97.6172 74.2476 97.6427 74.1099 97.8075 74.0659L101.532 73.0718C101.629 73.0532 101.729 73.0563 101.824 73.0809C101.919 73.1054 102.008 73.1508 102.083 73.2138L104.706 75.5982C104.848 75.7246 104.821 75.8623 104.657 75.9063L100.932 76.9004ZM91.5022 79.4268C91.4056 79.4454 91.306 79.4423 91.2107 79.4177C91.1154 79.3932 91.0268 79.3478 90.9512 79.2848L85.3801 74.2235C85.2381 74.0971 85.2636 73.9594 85.4298 73.9139L89.1533 72.9198C89.2497 72.9016 89.349 72.9048 89.444 72.9294C89.539 72.9539 89.6274 72.9992 89.7029 73.0619L95.274 78.126C95.416 78.2524 95.3904 78.3901 95.2271 78.4341L91.5022 79.4282V79.4268ZM96.217 78.1657C96.12 78.1832 96.0204 78.179 95.9253 78.1532C95.8303 78.1274 95.7422 78.0807 95.6674 78.0166L87.8369 70.899C87.6949 70.7726 87.719 70.6349 87.8837 70.5909L91.6087 69.5968C91.7051 69.5781 91.8045 69.5812 91.8995 69.6057C91.9946 69.6303 92.083 69.6757 92.1583 69.7388L99.9973 76.8635C100.139 76.9899 100.114 77.1276 99.949 77.1717L96.2241 78.1657H96.217ZM86.786 80.6978C86.6896 80.7164 86.5903 80.7133 86.4952 80.6887C86.4002 80.6641 86.3118 80.6187 86.2364 80.5558L74.3458 69.7459C74.2038 69.6195 74.2265 69.4818 74.3927 69.4377L78.1162 68.4437C78.2131 68.425 78.3128 68.4281 78.4084 68.4527C78.5039 68.4772 78.5928 68.5226 78.6686 68.5857L90.555 79.3899C90.697 79.5163 90.6714 79.654 90.5067 79.698L86.7817 80.6921L86.786 80.6978ZM82.067 81.956C81.9706 81.9742 81.8713 81.9709 81.7763 81.9463C81.6813 81.9218 81.5929 81.8766 81.5174 81.814L66.051 67.7549C65.909 67.6285 65.9331 67.4908 66.0993 67.4467L69.8228 66.4527C69.9192 66.4343 70.0185 66.4375 70.1135 66.462C70.2085 66.4866 70.2969 66.5319 70.3724 66.5947L85.8487 80.6623C85.9907 80.7887 85.9666 80.9264 85.8019 80.9704L82.0769 81.9645L82.067 81.956ZM49.1147 79.5262L49.163 71.8491L49.3618 71.8945C53.1052 72.7565 56.6328 74.5047 59.037 76.6917L59.1791 76.8166L59.037 76.8678L49.1147 79.5262ZM55.4839 89.1205C50.0051 90.5874 41.8083 88.3834 37.2085 84.2026C32.6088 80.0218 33.3274 75.4292 38.8061 73.9622C41.2132 73.3175 44.2679 73.3601 47.4049 74.0829L47.5981 74.1269L47.5526 81.3141L56.9807 78.7877L57.1071 78.9028C61.6742 83.0736 60.9414 87.6563 55.4839 89.1205ZM89.6518 57.1566L19.9102 75.8424L60.7128 112.929L122.114 96.4766C126.8 95.2198 127.414 91.3032 123.48 87.7273L91.1287 58.331C90.6626 57.9094 90.1693 57.519 89.6518 57.1623" fill="#F1F3F4"/>
<path d="M19.9102 75.8424L19.6091 75.9234L60.4132 113.01L122.114 96.4766L60.7142 112.929L19.9102 75.8424Z" fill="#010E18"/>
<path d="M75.516 54.1246L9.74356 71.7482C5.70192 72.8303 4.68938 75.8906 7.00701 79.0049L89.3393 56.9463C85.3091 54.2922 79.5576 53.0439 75.516 54.1274" fill="white"/>
<path d="M89.3394 56.9464L7.00708 79.005C7.06814 79.086 7.13063 79.1669 7.19596 79.2493L19.6091 75.9234L19.9102 75.8424L89.6518 57.1552C89.5482 57.0842 89.4445 57.0132 89.3394 56.9436" fill="#010E18"/>
<path d="M70.0785 66.677L66.3535 67.6753L81.8199 81.733L85.5449 80.7347L70.0785 66.677Z" fill="#006CFF"/>
<path d="M81.8212 81.733L66.3534 67.6739L70.0784 66.6798L85.5448 80.7389L81.8212 81.733ZM69.827 66.4497L66.1091 67.4552C65.943 67.4992 65.9231 67.6369 66.0609 67.7633L81.5273 81.8224C81.6028 81.885 81.6912 81.9302 81.7862 81.9548C81.8812 81.9793 81.9804 81.9826 82.0769 81.9644L85.8018 80.9704C85.9665 80.9263 85.9878 80.7886 85.8487 80.6622L70.3766 66.6031C70.3011 66.5403 70.2127 66.495 70.1177 66.4705C70.0227 66.4459 69.9234 66.4427 69.827 66.4611" fill="#010E18"/>
<path d="M78.3733 68.668L74.6483 69.6663L86.5361 80.4705L90.2596 79.4722L78.3733 68.668Z" fill="#D05AD3"/>
<path d="M86.5361 80.4705L74.6483 69.6663L78.3733 68.6722L90.2596 79.4764L86.5361 80.4705ZM78.1205 68.4393L74.397 69.4334C74.2308 69.4774 74.211 69.6152 74.3501 69.7416L86.2364 80.5457C86.3118 80.6087 86.4002 80.6541 86.4952 80.6787C86.5903 80.7032 86.6896 80.7063 86.786 80.6878L90.511 79.6937C90.6757 79.6497 90.6984 79.5119 90.5593 79.3855L78.6729 68.5913C78.5971 68.5282 78.5082 68.4828 78.4127 68.4583C78.3171 68.4337 78.2174 68.4306 78.1205 68.4493" fill="#010E18"/>
<path d="M89.4047 73.1442L85.6812 74.1425L91.2522 79.2066L94.9758 78.2083L89.4047 73.1442Z" fill="#FF4F9F"/>
<path d="M91.2523 79.2067L85.6797 74.1425L89.4047 73.1485L94.9758 78.2126L91.2523 79.2067ZM89.1533 72.917L85.4298 73.9111C85.2636 73.9565 85.2423 74.0943 85.3801 74.2206L90.9512 79.2833C91.0268 79.3463 91.1154 79.3917 91.2107 79.4163C91.306 79.4409 91.4056 79.4439 91.5022 79.4254L95.2271 78.4313C95.3905 78.3873 95.4132 78.2495 95.274 78.1231L89.7029 73.0647C89.6274 73.002 89.539 72.9567 89.444 72.9322C89.349 72.9076 89.2497 72.9044 89.1533 72.9227" fill="#010E18"/>
<path d="M91.853 69.8212L88.1281 70.8181L95.9671 77.9428L99.6906 76.9444L91.853 69.8212Z" fill="#F58D72"/>
<path d="M95.967 77.9428L88.128 70.8181L91.8529 69.824L99.6905 76.9473L95.967 77.9413V77.9428ZM91.6016 69.5911L87.8766 70.5852C87.7119 70.6292 87.6906 70.7669 87.8298 70.8933L95.6673 78.0166C95.7421 78.0807 95.8302 78.1274 95.9253 78.1532C96.0204 78.1789 96.12 78.1832 96.2169 78.1657L99.9419 77.1716C100.107 77.1276 100.128 76.9899 99.9901 76.8635L92.1511 69.7388C92.0759 69.6757 91.9875 69.6303 91.8924 69.6057C91.7973 69.5811 91.698 69.5781 91.6016 69.5968" fill="#010E18"/>
<path d="M101.782 73.2975L98.0588 74.2958L100.682 76.6802L104.405 75.6818L101.782 73.2975Z" fill="#FAC466"/>
<path d="M100.682 76.686L98.0617 74.2959L101.785 73.3018L104.408 75.6862L100.685 76.6803L100.682 76.686ZM101.537 73.0718L97.8118 74.0659C97.647 74.1099 97.6243 74.2476 97.7635 74.374L100.386 76.7584C100.462 76.8213 100.55 76.8666 100.645 76.8912C100.74 76.9157 100.84 76.9189 100.936 76.9004L104.661 75.9063C104.826 75.8623 104.848 75.7246 104.711 75.5982L102.088 73.2138C102.012 73.1508 101.923 73.1054 101.828 73.0808C101.733 73.0563 101.633 73.0532 101.537 73.0718Z" fill="#010E18"/>
<path d="M39.0561 74.188C33.7435 75.6081 33.049 80.0673 37.5096 84.1288C41.9702 88.1903 49.9199 90.3191 55.2326 88.8904C60.487 87.4845 61.2226 83.1092 56.9367 79.0917L47.1592 81.7132L47.2047 74.2619C44.231 73.6029 41.3425 73.5759 39.0561 74.188Z" fill="#1463FF"/>
<path d="M55.2326 88.8904C49.9186 90.3105 41.9688 88.1803 37.5096 84.1217C33.0505 80.063 33.7435 75.6124 39.0561 74.1809C41.3425 73.5688 44.231 73.5958 47.2047 74.2547L47.1593 81.7061L56.9325 79.1002C61.2227 83.1134 60.4828 87.4888 55.2284 88.8989L55.2326 88.8904ZM38.8062 73.9608C33.3274 75.4278 32.6117 80.0232 37.2086 84.2012C41.8055 88.3792 50.0052 90.5917 55.484 89.119C60.9628 87.6464 61.6742 83.0765 57.1072 78.9013L56.9808 78.7863L47.5527 81.3127L47.5981 74.1255L47.405 74.0815C44.268 73.3587 41.2133 73.3161 38.8062 73.9608Z" fill="#010E18"/>
<path d="M49.5521 72.1643L49.5095 79.1229L58.6366 76.6859C56.3417 74.6424 53.0513 73.0093 49.5479 72.1714" fill="#FF4F9F"/>
<path d="M49.5095 79.1242L49.5521 72.1657C53.0513 73.0036 56.3417 74.6367 58.6408 76.6802L49.5138 79.1256L49.5095 79.1242ZM49.1673 71.849L49.1147 79.5261L59.0371 76.8677L59.1791 76.8165L59.0371 76.6916C56.6328 74.5046 53.1053 72.7565 49.3618 71.8944L49.163 71.849" fill="#010E18"/>
<path d="M54.9472 95.528L52.3796 97.678L56.2878 101.231L57.6426 100.868L54.6632 98.1608L59.5739 96.8444L62.5533 99.5511L63.9081 99.189L60 95.6359L54.9472 95.528Z" fill="#1463FF"/>
<path d="M56.2878 101.23L52.3796 97.6795L54.9472 95.5294L59.9999 95.6374L63.9081 99.1877L62.559 99.5498L62.6555 99.6378L57.7434 100.953L57.6482 100.866L56.2934 101.228L56.2878 101.23ZM54.7484 95.3463C54.7355 95.3496 54.7235 95.3554 54.7129 95.3633L52.0672 97.5787C52.0374 97.6028 52.0445 97.644 52.0842 97.6809L56.1543 101.373C56.1828 101.398 56.2165 101.416 56.2529 101.426C56.2893 101.435 56.3274 101.437 56.3644 101.43L64.2148 99.3268C64.2787 99.3098 64.2872 99.2572 64.2333 99.209L60.1632 95.5167C60.1173 95.4782 60.0598 95.4562 59.9999 95.4542L54.7952 95.342C54.7796 95.3404 54.7639 95.3404 54.7484 95.342" fill="#010E18"/>
<path d="M59.5738 96.8444L54.6631 98.1608L57.6425 100.868L57.7376 100.954L62.6498 99.6391L62.5532 99.5511L59.5738 96.8444Z" fill="#010E18"/>
<path d="M62.9963 102.843L60.4274 104.993L64.3355 108.545L65.6889 108.181L62.7109 105.476L67.6231 104.159L70.601 106.866L71.9558 106.503L68.0491 102.951L62.9963 102.843Z" fill="#1463FF"/>
<path d="M64.3354 108.545L60.4273 104.994L62.9963 102.844L68.049 102.952L71.9558 106.503L70.601 106.866L70.6961 106.953L65.7854 108.269L65.6888 108.181L64.3354 108.545ZM62.796 102.661C62.7832 102.665 62.7712 102.67 62.7605 102.678L60.1163 104.894C60.0865 104.919 60.0922 104.959 60.1305 104.994L64.2005 108.687C64.2294 108.711 64.2634 108.729 64.3 108.739C64.3366 108.749 64.3749 108.75 64.4121 108.744L72.2639 106.65C72.3264 106.633 72.3335 106.579 72.281 106.531L68.2109 102.839C68.1654 102.801 68.1083 102.779 68.049 102.778L62.8429 102.656C62.8269 102.653 62.8106 102.653 62.7946 102.656" fill="#010E18"/>
<path d="M67.6231 104.159L62.7109 105.476L65.6889 108.181L65.7855 108.269L70.6962 106.953L70.6011 106.866L67.6231 104.159Z" fill="#010E18"/>
<path d="M67.731 92.1027L65.1635 94.2527L69.0716 97.8044L70.425 97.4423L67.447 94.7341L72.3592 93.4191L75.3385 96.1258L76.6919 95.7637L72.7838 92.2106L67.731 92.1027Z" fill="#1463FF"/>
<path d="M69.0715 97.8044L65.1634 94.2541L67.731 92.1041L72.7837 92.212L76.6919 95.7623L75.3399 96.1258L75.4365 96.2125L70.5229 97.5289L70.4277 97.4423L69.073 97.8044H69.0715ZM67.5293 91.9209C67.5165 91.9243 67.5044 91.93 67.4938 91.9379L64.851 94.1533C64.8211 94.1775 64.8297 94.2186 64.8694 94.2541L68.9395 97.9464C68.968 97.971 69.0017 97.9889 69.0381 97.9988C69.0745 98.0086 69.1126 98.0101 69.1496 98.0032L76.9986 95.9C77.0625 95.883 77.071 95.8305 77.0185 95.7822L72.9484 92.0899C72.9029 92.0493 72.8447 92.0257 72.7837 92.0231L67.579 91.911C67.5634 91.9094 67.5477 91.9094 67.5321 91.911" fill="#010E18"/>
<path d="M72.3591 93.4191L67.4469 94.7341L70.4249 97.4422L70.5214 97.5289L75.4336 96.2124L75.3384 96.1258L72.3591 93.4191Z" fill="#010E18"/>
<path d="M75.7802 99.4177L73.2112 101.568L77.1193 105.119L78.4727 104.756L75.4947 102.051L80.4083 100.734L83.3863 103.439L84.7396 103.077L80.8329 99.5257L75.7802 99.4177Z" fill="#1463FF"/>
<path d="M77.1193 105.119L73.2111 101.569L75.7801 99.419L80.8329 99.5269L84.7396 103.077L83.3862 103.439L83.4814 103.527L78.5692 104.844L78.4726 104.756L77.1193 105.119ZM75.5799 99.2358C75.5671 99.2392 75.555 99.245 75.5444 99.2529L72.9001 101.468C72.8703 101.494 72.876 101.532 72.9157 101.569L76.9858 105.261C77.0146 105.286 77.0485 105.304 77.0851 105.314C77.1217 105.324 77.16 105.326 77.1974 105.32L85.0477 103.216C85.1102 103.199 85.1188 103.145 85.0662 103.097L80.9962 99.4048C80.9499 99.367 80.8925 99.3456 80.8329 99.3437L75.6239 99.2301C75.6079 99.2278 75.5916 99.2278 75.5756 99.2301" fill="#010E18"/>
<path d="M80.4083 100.734L75.4948 102.051L78.4727 104.756L78.5693 104.844L83.4815 103.527L83.3863 103.439L80.4083 100.734Z" fill="#010E18"/>
<path d="M80.5148 88.6774L77.9473 90.8274L81.8554 94.3791L83.2102 94.017L80.2322 91.3088L85.143 89.9924L88.1224 92.7005L89.4771 92.337L85.569 88.7853L80.5148 88.6774Z" fill="#C7CED3"/>
<path d="M81.8554 94.3791L77.9473 90.8288L80.5148 88.6788L85.569 88.7867L89.4771 92.337L88.1209 92.7005L88.2161 92.7871L83.3054 94.1036L83.2088 94.017L81.854 94.3791H81.8554ZM80.3103 88.4956C80.2979 88.4989 80.2863 88.5047 80.2763 88.5126L77.6292 90.728C77.6008 90.7521 77.6079 90.7933 77.6476 90.8288L81.7177 94.5211C81.7462 94.5457 81.7799 94.5636 81.8163 94.5734C81.8527 94.5833 81.8908 94.5848 81.9278 94.5779L89.7782 92.4747C89.8421 92.4577 89.8492 92.4037 89.7967 92.3554L85.7266 88.6632C85.6807 88.6245 85.6233 88.6021 85.5633 88.5992L80.3572 88.4885C80.3416 88.4869 80.3259 88.4869 80.3103 88.4885" fill="#798086"/>
<path d="M85.1429 89.9923L80.2322 91.3087L83.2101 94.0169L83.3067 94.1035L88.2175 92.7871L88.1223 92.7005L85.1429 89.9923Z" fill="#798086"/>
<path d="M88.564 95.9923L85.995 98.1424L89.9031 101.694L91.2579 101.331L88.2799 98.6238L93.1921 97.3087L96.1701 100.014L97.5249 99.6519L93.6182 96.1002L88.564 95.9923Z" fill="#1463FF"/>
<path d="M89.9032 101.694L85.9951 98.1439L88.5626 95.9995L93.6182 96.1074L97.5249 99.6577L96.1702 100.02L96.2653 100.108L91.3546 101.424L91.258 101.336L89.9032 101.7V101.694ZM88.3638 95.8163C88.3512 95.819 88.3395 95.8249 88.3297 95.8334L85.6841 98.0487C85.6557 98.0729 85.6599 98.1126 85.6997 98.1496L89.7697 101.842C89.7986 101.866 89.8325 101.884 89.869 101.895C89.9056 101.905 89.9439 101.906 89.9813 101.9L97.8331 99.7969C97.8956 99.7798 97.9027 99.7259 97.8502 99.6776L93.7801 95.9853C93.7343 95.9477 93.6774 95.9263 93.6182 95.9242L88.4121 95.8121C88.3961 95.8097 88.3798 95.8097 88.3638 95.8121" fill="#010E18"/>
<path d="M93.1922 97.3088L88.28 98.6239L91.258 101.331L91.3546 101.417L96.2653 100.102L96.1702 100.014L93.1922 97.3088Z" fill="#010E18"/>
<path d="M93.3001 85.2506L90.7325 87.4021L94.6407 90.9538L95.994 90.5902L93.0161 87.8835L97.9268 86.5671L100.906 89.2752L102.261 88.9117L98.3528 85.36L93.3001 85.2506Z" fill="#C7CED3"/>
<path d="M94.6406 90.9537L90.7325 87.4035L93.3001 85.252L98.3528 85.3614L102.261 88.9116L100.902 89.2752L100.997 89.3618L96.0863 90.6783L95.9898 90.5916L94.6364 90.9537H94.6406ZM93.1013 85.0646C93.0882 85.0673 93.076 85.0731 93.0658 85.0816L90.4201 87.2956C90.3903 87.3211 90.3974 87.3623 90.4371 87.3978L94.5057 91.0901C94.5346 91.1146 94.5686 91.1325 94.6051 91.1423C94.6417 91.1521 94.6801 91.1537 94.7173 91.1469L102.568 89.0423C102.632 89.0267 102.639 88.9727 102.586 88.9244L98.5161 85.2321C98.4707 85.1926 98.413 85.1701 98.3528 85.1682L93.1481 85.0646C93.1326 85.0623 93.1168 85.0623 93.1013 85.0646Z" fill="#798086"/>
<path d="M97.9267 86.5671L93.016 87.8836L95.994 90.5903L96.0905 90.6784L101.001 89.3619L100.906 89.2753L97.9267 86.5671Z" fill="#798086"/>
<path d="M101.348 92.567L98.7803 94.7171L102.688 98.2688L104.042 97.9052L101.064 95.1985L105.976 93.8835L108.954 96.5888L110.309 96.2266L106.402 92.6749L101.348 92.567Z" fill="#C7CED3"/>
<path d="M102.688 98.2716L98.7803 94.7213L101.348 92.5713L106.402 92.6792L110.309 96.2295L108.954 96.5916L109.049 96.6797L104.138 97.9876L104.042 97.901L102.688 98.2716ZM101.149 92.3895C101.136 92.3917 101.123 92.3976 101.114 92.4066L98.4679 94.6205C98.4395 94.6461 98.4437 94.6858 98.4835 94.7213L102.554 98.4136C102.582 98.4383 102.616 98.4562 102.653 98.4663C102.689 98.4764 102.728 98.4783 102.765 98.4718L110.617 96.3687C110.679 96.3516 110.687 96.2977 110.634 96.2494L106.564 92.5571C106.518 92.5193 106.461 92.4978 106.402 92.496L101.197 92.3838C101.181 92.3815 101.165 92.3815 101.149 92.3838" fill="#798086"/>
<path d="M105.976 93.8834L101.064 95.1984L104.042 97.9052L104.138 97.9918L109.049 96.6768L108.954 96.5887L105.976 93.8834Z" fill="#798086"/>
<path d="M106.084 81.8253L103.516 83.9768L107.425 87.5285L108.778 87.1649L105.8 84.4582L110.712 83.1418L113.691 85.8485L115.045 85.4864L111.137 81.9347L106.084 81.8253Z" fill="#1463FF"/>
<path d="M107.424 87.5285L103.516 83.9782L106.084 81.8281L111.137 81.9375L115.045 85.4878L113.691 85.8513L113.787 85.9379L108.874 87.2544L108.778 87.1663L107.424 87.5299V87.5285ZM105.885 81.6464C105.871 81.6488 105.859 81.6547 105.848 81.6634L103.204 83.8774C103.174 83.9029 103.183 83.9427 103.221 83.9796L107.291 87.6719C107.32 87.6963 107.354 87.7139 107.39 87.7235C107.427 87.7331 107.465 87.7344 107.503 87.7273L115.351 85.6326C115.415 85.6156 115.424 85.563 115.371 85.5147L111.301 81.8225C111.255 81.784 111.197 81.762 111.137 81.76L105.932 81.6492C105.916 81.647 105.901 81.647 105.885 81.6492" fill="#010E18"/>
<path d="M110.712 83.1417L105.8 84.4582L108.778 87.1649L108.874 87.2529L113.787 85.9365L113.691 85.8485L110.712 83.1417Z" fill="#010E18"/>
<path d="M114.132 89.1417L111.564 91.2918L115.472 94.842L116.826 94.4799L113.848 91.7732L118.761 90.4567L121.739 93.1635L123.093 92.8013L119.186 89.2496L114.132 89.1417Z" fill="#C7CED3"/>
<path d="M115.472 94.8421L111.564 91.2918L114.132 89.1403L119.184 89.2497L123.093 92.8L121.738 93.1593L121.834 93.2459L116.922 94.5623L116.826 94.4757L115.472 94.8378V94.8421ZM113.933 88.9543C113.92 88.9575 113.907 88.9638 113.897 88.9728L111.252 91.1867C111.223 91.2123 111.229 91.252 111.269 91.2875L115.339 94.9798C115.367 95.0046 115.401 95.0226 115.438 95.0327C115.475 95.0427 115.513 95.0446 115.55 95.0381L123.399 92.9349C123.463 92.9178 123.472 92.8639 123.419 92.8156L119.349 89.1233C119.303 89.085 119.246 89.0634 119.186 89.0622L113.981 88.95C113.965 88.9485 113.949 88.9485 113.933 88.95" fill="#798086"/>
<path d="M118.761 90.4568L113.848 91.7732L116.826 94.48L116.922 94.5666L121.834 93.2501L121.739 93.1635L118.761 90.4568Z" fill="#798086"/>
<path d="M56.5943 114.452L54.7481 120.256C54.6061 120.296 54.4641 120.332 54.3093 120.364L56.1654 114.559C56.3145 114.526 56.4608 114.491 56.6056 114.452" fill="#01090F"/>
<path d="M56.1598 114.559L54.3037 120.364C52.3482 120.799 50.0433 120.739 47.7413 120.279L49.5974 114.474C51.9051 114.935 54.2043 114.993 56.1598 114.559Z" fill="#010910"/>
<path d="M49.5974 114.474L47.7413 120.283C47.0312 120.141 46.3212 119.964 45.6282 119.749L47.4843 113.944C48.1792 114.157 48.8844 114.336 49.5974 114.478" fill="#01090F"/>
<path d="M47.4843 113.94L45.6282 119.745C45.0786 119.577 44.5347 119.387 44.0007 119.177L45.8568 113.372C46.3908 113.582 46.9347 113.772 47.4843 113.94Z" fill="#01090F"/>
<path d="M45.8569 113.372L44.0008 119.177C43.518 118.987 43.0422 118.779 42.5807 118.555L44.4354 112.757C44.8983 112.98 45.374 113.183 45.8555 113.377" fill="#01080E"/>
<path d="M44.4353 112.757L42.5792 118.561C42.1276 118.343 41.6883 118.111 41.2614 117.865L43.1174 112.059C43.5435 112.307 43.9828 112.539 44.4353 112.757Z" fill="#01080E"/>
<path d="M43.1175 112.054L41.2571 117.859C40.8102 117.601 40.3804 117.327 39.9677 117.037L41.8252 111.233C42.237 111.517 42.6668 111.791 43.1146 112.054" fill="#01080D"/>
<path d="M41.825 111.233L39.9789 117.037C39.5041 116.705 39.0489 116.345 38.6156 115.96L40.4717 110.155C40.9049 110.54 41.3601 110.9 41.835 111.233" fill="#01080D"/>
<path d="M40.4647 110.155L38.6087 115.96L38.5277 115.887L40.3838 110.081L40.4647 110.155Z" fill="#01070C"/>
</svg>
