<svg width="130" height="129" viewBox="0 0 130 129" fill="none" xmlns="http://www.w3.org/2000/svg">
<path d="M114.393 63.8454C114.393 63.8226 114.381 63.2035 114.38 63.158L114.367 63.1708C114.083 51.3839 109.482 39.9847 101.586 31.2453C82.4929 9.25063 45.3186 9.96069 27.1015 32.7066H27.1114C21.6467 39.2347 17.9547 47.0597 16.391 55.4284H16.4052C13.6672 69.868 17.7302 85.2706 27.3301 96.4582V96.4255C29.3157 98.7469 31.5016 100.889 33.8626 102.827C64.7514 129.297 116.067 104.649 114.393 63.8454Z" fill="#FAC466" stroke="#010E18" stroke-width="0.425815" stroke-miterlimit="10"/>
<path d="M14.1403 101.748C14.1202 101.748 14.1003 101.744 14.082 101.735L10.8868 100.315C10.8568 100.302 10.8325 100.278 10.818 100.248C10.8035 100.219 10.7997 100.185 10.8073 100.153L28.1085 28.7828C28.1132 28.7624 28.1224 28.7432 28.1354 28.7268C28.1484 28.7103 28.1649 28.697 28.1837 28.6877C28.2034 28.6788 28.2246 28.6739 28.2462 28.6735C28.2663 28.6736 28.2861 28.6779 28.3044 28.6862L31.4983 30.1064C31.5234 30.1173 31.5449 30.1354 31.56 30.1583C31.5751 30.1813 31.5833 30.2081 31.5835 30.2356V101.606C31.5835 101.644 31.5685 101.68 31.5419 101.706C31.5152 101.733 31.4791 101.748 31.4415 101.748H14.1403Z" fill="#010E18"/>
<path d="M28.2461 28.8154L31.4414 30.2355V101.606H14.1402L10.9449 100.186L28.2461 28.8154ZM28.2461 28.5314C28.2027 28.5313 28.1599 28.5415 28.1212 28.5612C28.0839 28.5795 28.0511 28.6058 28.0251 28.6382C27.9991 28.6706 27.9805 28.7083 27.9706 28.7486L10.6694 100.118C10.6537 100.182 10.6612 100.25 10.6905 100.31C10.7198 100.37 10.7691 100.417 10.8299 100.444L14.0251 101.864C14.0614 101.88 14.1006 101.889 14.1402 101.889H31.4414C31.5167 101.889 31.589 101.859 31.6422 101.805C31.6955 101.752 31.7254 101.68 31.7254 101.605V30.2369C31.7254 30.1819 31.7095 30.128 31.6795 30.0819C31.6495 30.0358 31.6067 29.9993 31.5564 29.977L28.3612 28.5569C28.3249 28.5412 28.2857 28.533 28.2461 28.5328V28.5314Z" fill="#010E18"/>
<path d="M36.044 101.748C36.0239 101.748 36.004 101.744 35.9857 101.735L32.7905 100.315C32.7589 100.301 32.7337 100.275 32.7196 100.244C32.7055 100.212 32.7034 100.176 32.7138 100.143L50.0136 45.2888C50.023 45.2588 50.042 45.2329 50.0677 45.2149C50.0934 45.1969 50.1243 45.1879 50.1556 45.1894C50.1751 45.1894 50.1944 45.1933 50.2124 45.2007L53.4077 46.6208C53.4328 46.6318 53.4543 46.6499 53.4694 46.6728C53.4845 46.6958 53.4927 46.7226 53.4929 46.7501V101.606C53.4929 101.644 53.4779 101.68 53.4513 101.707C53.4246 101.733 53.3885 101.748 53.3509 101.748H36.044Z" fill="#010E18"/>
<path d="M50.15 45.3314L53.3453 46.7515V101.606H36.044L32.8488 100.186L50.15 45.3314ZM50.15 45.0474C50.11 45.0475 50.0704 45.0558 50.0336 45.0715C49.9969 45.088 49.9641 45.1121 49.9374 45.1422C49.9107 45.1723 49.8907 45.2078 49.8788 45.2462L32.5776 100.099C32.5566 100.166 32.5609 100.238 32.5897 100.302C32.6185 100.365 32.6698 100.416 32.7338 100.444L35.9276 101.865C35.9644 101.88 36.004 101.889 36.044 101.889H53.3453C53.4206 101.889 53.4928 101.859 53.5461 101.806C53.5993 101.752 53.6293 101.68 53.6293 101.605V46.7515C53.629 46.6967 53.613 46.6432 53.583 46.5973C53.553 46.5514 53.5104 46.5152 53.4603 46.493L50.265 45.0729C50.2289 45.0567 50.1896 45.0484 50.15 45.0488V45.0474Z" fill="#010E18"/>
<path d="M57.9477 101.748C57.9276 101.748 57.9077 101.744 57.8894 101.735L54.6942 100.315C54.6755 100.307 54.6588 100.294 54.6453 100.279C54.6319 100.264 54.6219 100.245 54.6161 100.226C54.6102 100.206 54.6088 100.185 54.612 100.164C54.6152 100.143 54.6229 100.124 54.6346 100.106L71.9315 74.3982C71.9445 74.3789 71.9621 74.3631 71.9826 74.3522C72.0032 74.3413 72.0261 74.3357 72.0494 74.3357C72.069 74.336 72.0883 74.3403 72.1062 74.3485L75.3014 75.7686C75.3263 75.7798 75.3475 75.7979 75.3623 75.8209C75.3772 75.8438 75.3851 75.8705 75.3852 75.8978V101.602C75.3852 101.639 75.3702 101.676 75.3436 101.702C75.317 101.729 75.2809 101.744 75.2432 101.744L57.9477 101.748Z" fill="#010E18"/>
<path d="M72.0537 74.4776L75.2475 75.8977V101.602H57.9477L54.7525 100.182L72.0537 74.4776ZM72.0537 74.1936C72.0071 74.1935 71.9613 74.2049 71.9202 74.2267C71.8791 74.2485 71.844 74.28 71.8179 74.3186L54.5167 100.023C54.4934 100.057 54.478 100.096 54.4715 100.137C54.465 100.178 54.4676 100.22 54.4791 100.26C54.4906 100.3 54.5108 100.337 54.5381 100.368C54.5655 100.4 54.5994 100.425 54.6374 100.442L57.8313 101.862C57.8681 101.877 57.9077 101.886 57.9477 101.886H75.2475C75.3228 101.886 75.3951 101.856 75.4483 101.803C75.5016 101.749 75.5315 101.677 75.5315 101.602V75.8977C75.5317 75.8429 75.5159 75.7891 75.4862 75.743C75.4565 75.6969 75.414 75.6604 75.3639 75.6379L72.1687 74.2177C72.1323 74.2021 72.0932 74.1939 72.0537 74.1936Z" fill="#010E18"/>
<path d="M79.8119 101.748C79.7918 101.748 79.772 101.744 79.7537 101.735L76.5982 100.315C76.566 100.301 76.5403 100.275 76.5261 100.243C76.512 100.21 76.5103 100.174 76.5215 100.141L88.0982 65.3933C88.1058 65.3708 88.1188 65.3506 88.1362 65.3345C88.1536 65.3184 88.1747 65.3068 88.1976 65.301L93.9221 63.8809H93.9562C93.9763 63.881 93.9961 63.8853 94.0144 63.8936L97.2097 65.3138C97.2346 65.325 97.2557 65.3431 97.2706 65.366C97.2855 65.3889 97.2934 65.4157 97.2934 65.443V101.606C97.2934 101.644 97.2785 101.68 97.2519 101.707C97.2252 101.733 97.1891 101.748 97.1514 101.748H79.8119Z" fill="#010E18"/>
<path d="M93.9576 64.0158L97.1514 65.4359V101.606H79.8119L76.6564 100.186L88.2331 65.4387L93.9576 64.0186V64.0158ZM93.9576 63.7346C93.9341 63.7345 93.9108 63.7374 93.888 63.7431L88.1635 65.1632C88.1172 65.1749 88.0746 65.198 88.0396 65.2306C88.0046 65.2631 87.9783 65.3039 87.9633 65.3492L76.3866 100.095C76.3646 100.162 76.3681 100.234 76.3964 100.298C76.4248 100.363 76.4759 100.414 76.5399 100.443L79.6954 101.863C79.732 101.88 79.7717 101.888 79.8119 101.889H97.1514C97.2268 101.889 97.299 101.859 97.3523 101.805C97.4055 101.752 97.4354 101.68 97.4354 101.605V65.4373C97.4356 65.3824 97.4199 65.3287 97.3901 65.2825C97.3604 65.2364 97.3179 65.1999 97.2679 65.1774L94.0726 63.7573C94.0363 63.7417 93.9972 63.7335 93.9576 63.7332V63.7346Z" fill="#010E18"/>
<path d="M101.754 101.748C101.734 101.748 101.715 101.744 101.697 101.735L98.5018 100.315C98.4703 100.301 98.445 100.276 98.4306 100.245C98.4163 100.213 98.4138 100.178 98.4237 100.145L101.612 89.467C101.62 89.44 101.636 89.4159 101.658 89.398C101.679 89.38 101.706 89.3689 101.734 89.3662L115.84 87.946H115.854C115.874 87.9461 115.894 87.9505 115.912 87.9588L119.108 89.3789C119.133 89.3902 119.154 89.4086 119.169 89.4318C119.184 89.455 119.192 89.482 119.191 89.5096V101.613C119.191 101.651 119.176 101.687 119.15 101.714C119.123 101.74 119.087 101.755 119.049 101.755L101.754 101.748Z" fill="#010E18"/>
<path d="M115.86 88.0809L119.055 89.5011V101.605H101.754L98.56 100.185L101.754 89.5025L115.86 88.0824V88.0809ZM115.86 87.7983H115.831L101.725 89.2185C101.67 89.2242 101.617 89.2462 101.574 89.2819C101.531 89.3175 101.499 89.3651 101.483 89.4187L98.2873 100.102C98.2675 100.168 98.2725 100.239 98.3012 100.302C98.33 100.365 98.3806 100.415 98.4435 100.443L101.639 101.863C101.675 101.879 101.714 101.887 101.754 101.887H119.055C119.13 101.887 119.203 101.857 119.256 101.804C119.309 101.751 119.339 101.679 119.339 101.603V89.5025C119.339 89.4474 119.323 89.3936 119.293 89.3474C119.263 89.3013 119.22 89.2649 119.17 89.2426L115.976 87.8225C115.939 87.8067 115.9 87.7985 115.86 87.7983Z" fill="#010E18"/>
<path d="M28.2462 28.6735H10.945C10.8666 28.6735 10.803 28.737 10.803 28.8155V100.185C10.803 100.263 10.8666 100.327 10.945 100.327H28.2462C28.3246 100.327 28.3882 100.263 28.3882 100.185V28.8155C28.3882 28.737 28.3246 28.6735 28.2462 28.6735Z" fill="#006CFF"/>
<path d="M28.2461 28.8154V100.184H10.9449V28.8154H28.2461ZM28.2461 28.5314H10.9449C10.8696 28.5314 10.7973 28.5613 10.7441 28.6146C10.6908 28.6678 10.6609 28.7401 10.6609 28.8154V100.184C10.6609 100.26 10.6908 100.332 10.7441 100.385C10.7973 100.439 10.8696 100.468 10.9449 100.468H28.2461C28.3214 100.468 28.3937 100.439 28.447 100.385C28.5002 100.332 28.5301 100.26 28.5301 100.184V28.8154C28.5301 28.7401 28.5002 28.6678 28.447 28.6146C28.3937 28.5613 28.3214 28.5314 28.2461 28.5314Z" fill="#010E18"/>
<path d="M50.15 45.1893H32.8488C32.7704 45.1893 32.7068 45.2529 32.7068 45.3313V100.185C32.7068 100.263 32.7704 100.327 32.8488 100.327H50.15C50.2284 100.327 50.292 100.263 50.292 100.185V45.3313C50.292 45.2529 50.2284 45.1893 50.15 45.1893Z" fill="#D05AD3"/>
<path d="M50.1499 45.3314V100.185H32.8487V45.3314H50.1499ZM50.1499 45.0474H32.8487C32.7734 45.0474 32.7012 45.0773 32.6479 45.1306C32.5946 45.1838 32.5647 45.2561 32.5647 45.3314V100.185C32.5647 100.26 32.5946 100.332 32.6479 100.385C32.7012 100.439 32.7734 100.469 32.8487 100.469H50.1499C50.2253 100.469 50.2975 100.439 50.3508 100.385C50.404 100.332 50.434 100.26 50.434 100.185V45.3314C50.434 45.2561 50.404 45.1838 50.3508 45.1306C50.2975 45.0773 50.2253 45.0474 50.1499 45.0474Z" fill="#010E18"/>
<path d="M72.0538 74.3357H54.7526C54.6742 74.3357 54.6106 74.3993 54.6106 74.4777V100.185C54.6106 100.263 54.6742 100.327 54.7526 100.327H72.0538C72.1322 100.327 72.1958 100.263 72.1958 100.185V74.4777C72.1958 74.3993 72.1322 74.3357 72.0538 74.3357Z" fill="#FF4F9F"/>
<path d="M72.0536 74.4776V100.182H54.7481V74.4776H72.0536ZM72.0536 74.1936H54.7481C54.6728 74.1936 54.6006 74.2235 54.5473 74.2768C54.494 74.3301 54.4641 74.4023 54.4641 74.4776V100.182C54.4641 100.257 54.494 100.329 54.5473 100.382C54.6006 100.436 54.6728 100.466 54.7481 100.466H72.0536C72.1289 100.466 72.2012 100.436 72.2544 100.382C72.3077 100.329 72.3376 100.257 72.3376 100.182V74.4776C72.3376 74.4023 72.3077 74.3301 72.2544 74.2768C72.2012 74.2235 72.1289 74.1936 72.0536 74.1936Z" fill="#010E18"/>
<path d="M93.9574 63.8738H76.6562C76.5777 63.8738 76.5142 63.9374 76.5142 64.0158V100.185C76.5142 100.263 76.5777 100.327 76.6562 100.327H93.9574C94.0358 100.327 94.0994 100.263 94.0994 100.185V64.0158C94.0994 63.9374 94.0358 63.8738 93.9574 63.8738Z" fill="#F58D72"/>
<path d="M93.9575 64.0157V100.185H76.6563V64.0157H93.9575ZM93.9575 63.7317H76.6563C76.581 63.7317 76.5088 63.7616 76.4555 63.8149C76.4022 63.8681 76.3723 63.9404 76.3723 64.0157V100.185C76.3723 100.26 76.4022 100.332 76.4555 100.385C76.5088 100.439 76.581 100.469 76.6563 100.469H93.9575C94.0329 100.469 94.1051 100.439 94.1584 100.385C94.2116 100.332 94.2416 100.26 94.2416 100.185V64.0157C94.2416 63.9404 94.2116 63.8681 94.1584 63.8149C94.1051 63.7616 94.0329 63.7317 93.9575 63.7317Z" fill="#010E18"/>
<path d="M115.86 87.939H98.5588C98.4803 87.939 98.4167 88.0025 98.4167 88.081V100.185C98.4167 100.263 98.4803 100.327 98.5588 100.327H115.86C115.938 100.327 116.002 100.263 116.002 100.185V88.081C116.002 88.0025 115.938 87.939 115.86 87.939Z" fill="#FAF684"/>
<path d="M115.86 88.0809V100.184H98.5601V88.0809H115.86ZM115.86 87.7969H98.5601C98.4848 87.7969 98.4126 87.8268 98.3593 87.8801C98.306 87.9333 98.2761 88.0056 98.2761 88.0809V100.184C98.2761 100.26 98.306 100.332 98.3593 100.385C98.4126 100.439 98.4848 100.469 98.5601 100.469H115.86C115.935 100.469 116.007 100.439 116.061 100.385C116.114 100.332 116.144 100.26 116.144 100.184V88.0809C116.144 88.0056 116.114 87.9333 116.061 87.8801C116.007 87.8268 115.935 87.7969 115.86 87.7969Z" fill="#010E18"/>
</svg>
